HIERARCHY
ROOT Hips
{
	OFFSET 0.000000 71.427986 0.000000
	CHANNELS 6 Xposition Yposition Zposition Xrotation Yrotation Zrotation
	JOINT Pelvis
	{
		OFFSET 0.000000 0.000000 0.000000
		CHANNELS 3 Xrotation Yrotation Zrotation
		JOINT LeftUpLeg
		{
			OFFSET 6.797100 -2.508499 -1.318700
			CHANNELS 3 Xrotation Yrotation Zrotation
			JOINT LeftLeg
			{
				OFFSET 0.069008 -29.241863 0.690200
				CHANNELS 3 Xrotation Yrotation Zrotation
				JOINT LeftFoot
				{
					OFFSET -0.069008 -29.568123 -0.266800
					CHANNELS 3 Xrotation Yrotation Zrotation
					JOINT LeftToeBase
					{
						OFFSET 3.145500 -8.631000 16.059900
						CHANNELS 3 Xrotation Yrotation Zrotation
						End Site
						{
							OFFSET 0.000000 18.501587 0.000000
						}
					}
				}
			}
			JOINT Left_ShortSleeve
			{
				OFFSET 0.265923 -10.480953 1.153800
				CHANNELS 3 Xrotation Yrotation Zrotation
				End Site
				{
					OFFSET 1.725763 19.823879 0.000000
				}
			}
		}
		JOINT RightUpLeg
		{
			OFFSET -6.797100 -2.508499 -1.318700
			CHANNELS 3 Xrotation Yrotation Zrotation
			JOINT RightLeg
			{
				OFFSET -0.082453 -29.241932 0.688000
				CHANNELS 3 Xrotation Yrotation Zrotation
				JOINT RightFoot
				{
					OFFSET 0.082453 -29.568058 -0.264600
					CHANNELS 3 Xrotation Yrotation Zrotation
					JOINT RightToeBase
					{
						OFFSET -3.115300 -8.682800 16.113400
						CHANNELS 3 Xrotation Yrotation Zrotation
						End Site
						{
							OFFSET 0.000000 18.567114 0.000000
						}
					}
				}
			}
			JOINT Right_ShortSleeve
			{
				OFFSET -0.265923 -10.480953 1.153800
				CHANNELS 3 Xrotation Yrotation Zrotation
				End Site
				{
					OFFSET -1.725766 19.823910 0.000000
				}
			}
		}
	}
	JOINT Spine
	{
		OFFSET 0.000000 13.368103 0.470500
		CHANNELS 3 Xrotation Yrotation Zrotation
		JOINT Spine1
		{
			OFFSET 0.147000 13.837402 0.538800
			CHANNELS 3 Xrotation Yrotation Zrotation
			JOINT Spine2
			{
				OFFSET 0.168000 16.242897 -1.435500
				CHANNELS 3 Xrotation Yrotation Zrotation
				JOINT Neck
				{
					OFFSET 0.217200 18.631500 -1.679100
					CHANNELS 3 Xrotation Yrotation Zrotation
					JOINT Head
					{
						OFFSET 0.000000 6.599396 1.385900
						CHANNELS 3 Xrotation Yrotation Zrotation
						JOINT Hat
						{
							OFFSET -0.532200 27.220596 -10.096100
							CHANNELS 3 Xrotation Yrotation Zrotation
							End Site
							{
								OFFSET 0.000000 22.029861 0.000000
							}
						}
						JOINT HairD
						{
							OFFSET -10.777400 17.437393 -1.325900
							CHANNELS 3 Xrotation Yrotation Zrotation
							JOINT HairD1
							{
								OFFSET -3.290299 -11.051193 1.062200
								CHANNELS 3 Xrotation Yrotation Zrotation
								End Site
								{
									OFFSET 0.000000 11.579437 0.000000
								}
							}
						}
						JOINT HairB
						{
							OFFSET -10.777400 17.437393 1.467900
							CHANNELS 3 Xrotation Yrotation Zrotation
							JOINT HairB1
							{
								OFFSET -1.561200 -12.956299 3.590200
								CHANNELS 3 Xrotation Yrotation Zrotation
								End Site
								{
									OFFSET 0.000000 13.534866 0.000000
								}
							}
						}
						JOINT HairA
						{
							OFFSET 9.713100 17.437393 1.467900
							CHANNELS 3 Xrotation Yrotation Zrotation
							JOINT HairA1
							{
								OFFSET 1.561200 -12.956299 3.590200
								CHANNELS 3 Xrotation Yrotation Zrotation
								End Site
								{
									OFFSET 0.000000 13.534866 0.000000
								}
							}
						}
						JOINT HairC
						{
							OFFSET 9.713100 17.437393 -1.325900
							CHANNELS 3 Xrotation Yrotation Zrotation
							JOINT HairC1
							{
								OFFSET 3.290300 -11.051193 1.062200
								CHANNELS 3 Xrotation Yrotation Zrotation
								End Site
								{
									OFFSET 0.000000 11.579437 0.000000
								}
							}
						}
					}
				}
				JOINT LeftShoulder
				{
					OFFSET 5.101800 15.108002 -2.763700
					CHANNELS 3 Xrotation Yrotation Zrotation
					JOINT LeftArm
					{
						OFFSET 9.825497 2.506317 -1.597400
						CHANNELS 3 Xrotation Yrotation Zrotation
						JOINT LeftForeArm
						{
							OFFSET 21.966244 0.000000 0.000000
							CHANNELS 3 Xrotation Yrotation Zrotation
							JOINT LeftHand
							{
								OFFSET 33.879036 0.000000 0.000000
								CHANNELS 3 Xrotation Yrotation Zrotation
								JOINT LeftHandThumb1
								{
									OFFSET 6.715286 -2.359680 3.363841
									CHANNELS 3 Xrotation Yrotation Zrotation
									JOINT LeftHandThumb2
									{
										OFFSET 2.507072 -1.447464 1.447461
										CHANNELS 3 Xrotation Yrotation Zrotation
										JOINT LeftHandThumb3
										{
											OFFSET 2.898338 -1.673355 1.673357
											CHANNELS 3 Xrotation Yrotation Zrotation
											End Site
											{
												OFFSET -0.295959 3.727692 -0.131651
											}
										}
									}
								}
								JOINT LeftHandIndex1
								{
									OFFSET 14.190811 -0.254547 3.840278
									CHANNELS 3 Xrotation Yrotation Zrotation
									JOINT LeftHandIndex2
									{
										OFFSET 3.551727 0.000000 -0.000000
										CHANNELS 3 Xrotation Yrotation Zrotation
										JOINT LeftHandIndex3
										{
											OFFSET 2.894196 0.000000 0.000000
											CHANNELS 3 Xrotation Yrotation Zrotation
											End Site
											{
												OFFSET -1.000603 2.690872 0.366626
											}
										}
									}
								}
								JOINT LeftHandMiddle1
								{
									OFFSET 13.776489 0.000000 0.000000
									CHANNELS 3 Xrotation Yrotation Zrotation
									JOINT LeftHandMiddle2
									{
										OFFSET 3.438232 0.000000 0.000000
										CHANNELS 3 Xrotation Yrotation Zrotation
										JOINT LeftHandMiddle3
										{
											OFFSET 3.691551 0.000000 0.000000
											CHANNELS 3 Xrotation Yrotation Zrotation
											End Site
											{
												OFFSET -1.082298 3.499527 0.457670
											}
										}
									}
								}
								JOINT LeftHandRing1
								{
									OFFSET 13.966164 -0.268127 -3.067488
									CHANNELS 3 Xrotation Yrotation Zrotation
									JOINT LeftHandRing2
									{
										OFFSET 3.162567 0.000000 0.000000
										CHANNELS 3 Xrotation Yrotation Zrotation
										JOINT LeftHandRing3
										{
											OFFSET 3.324348 0.000000 0.000000
											CHANNELS 3 Xrotation Yrotation Zrotation
											End Site
											{
												OFFSET -0.861900 3.184998 0.405154
											}
										}
									}
								}
								JOINT LeftHandPinky1
								{
									OFFSET 13.131393 -0.168503 -5.746925
									CHANNELS 3 Xrotation Yrotation Zrotation
									JOINT LeftHandPinky2
									{
										OFFSET 2.849182 0.000000 0.000000
										CHANNELS 3 Xrotation Yrotation Zrotation
										JOINT LeftHandPinky3
										{
											OFFSET 2.805038 0.000000 0.000000
											CHANNELS 3 Xrotation Yrotation Zrotation
											End Site
											{
												OFFSET -0.882500 2.642609 0.325652
											}
										}
									}
								}
							}
							JOINT Left_Sleeve
							{
								OFFSET 6.592125 -0.646545 0.805568
								CHANNELS 3 Xrotation Yrotation Zrotation
								End Site
								{
									OFFSET -0.000179 20.275787 -0.000000
								}
							}
						}
					}
				}
				JOINT RightShoulder
				{
					OFFSET -5.731700 15.108002 -2.763700
					CHANNELS 3 Xrotation Yrotation Zrotation
					JOINT RightArm
					{
						OFFSET -9.825497 2.506317 -1.597400
						CHANNELS 3 Xrotation Yrotation Zrotation
						JOINT RightForeArm
						{
							OFFSET -21.966242 0.000000 0.000000
							CHANNELS 3 Xrotation Yrotation Zrotation
							JOINT RightHand
							{
								OFFSET -33.879032 0.000000 0.000000
								CHANNELS 3 Xrotation Yrotation Zrotation
								JOINT RightHandThumb1
								{
									OFFSET -6.715286 -2.359680 3.363841
									CHANNELS 3 Xrotation Yrotation Zrotation
									JOINT RightHandThumb2
									{
										OFFSET -2.507072 -1.447464 1.447461
										CHANNELS 3 Xrotation Yrotation Zrotation
										JOINT RightHandThumb3
										{
											OFFSET -2.898338 -1.673355 1.673357
											CHANNELS 3 Xrotation Yrotation Zrotation
											End Site
											{
												OFFSET 0.295959 3.727692 -0.131651
											}
										}
									}
								}
								JOINT RightHandIndex1
								{
									OFFSET -14.190811 -0.254547 3.840278
									CHANNELS 3 Xrotation Yrotation Zrotation
									JOINT RightHandIndex2
									{
										OFFSET -3.551727 0.000000 -0.000000
										CHANNELS 3 Xrotation Yrotation Zrotation
										JOINT RightHandIndex3
										{
											OFFSET -2.894196 0.000000 0.000000
											CHANNELS 3 Xrotation Yrotation Zrotation
											End Site
											{
												OFFSET 1.000603 2.690872 0.366626
											}
										}
									}
								}
								JOINT RightHandMiddle1
								{
									OFFSET -13.776489 0.000000 0.000000
									CHANNELS 3 Xrotation Yrotation Zrotation
									JOINT RightHandMiddle2
									{
										OFFSET -3.438232 0.000000 0.000000
										CHANNELS 3 Xrotation Yrotation Zrotation
										JOINT RightHandMiddle3
										{
											OFFSET -3.691551 0.000000 0.000000
											CHANNELS 3 Xrotation Yrotation Zrotation
											End Site
											{
												OFFSET 1.082298 3.499527 0.457670
											}
										}
									}
								}
								JOINT RightHandRing1
								{
									OFFSET -13.966164 -0.268127 -3.067488
									CHANNELS 3 Xrotation Yrotation Zrotation
									JOINT RightHandRing2
									{
										OFFSET -3.162567 0.000000 0.000000
										CHANNELS 3 Xrotation Yrotation Zrotation
										JOINT RightHandRing3
										{
											OFFSET -3.324348 0.000000 0.000000
											CHANNELS 3 Xrotation Yrotation Zrotation
											End Site
											{
												OFFSET 0.861900 3.184998 0.405154
											}
										}
									}
								}
								JOINT RightHandPinky1
								{
									OFFSET -13.131393 -0.168503 -5.746925
									CHANNELS 3 Xrotation Yrotation Zrotation
									JOINT RightHandPinky2
									{
										OFFSET -2.849182 0.000000 0.000000
										CHANNELS 3 Xrotation Yrotation Zrotation
										JOINT RightHandPinky3
										{
											OFFSET -2.805038 0.000000 0.000000
											CHANNELS 3 Xrotation Yrotation Zrotation
											End Site
											{
												OFFSET 0.882500 2.642609 0.325652
											}
										}
									}
								}
							}
							JOINT Right_Sleeve
							{
								OFFSET -6.592125 -0.646545 0.805568
								CHANNELS 3 Xrotation Yrotation Zrotation
								End Site
								{
									OFFSET 0.000179 20.275787 -0.000000
								}
							}
						}
					}
				}
				JOINT Bind_Right_JacketString
				{
					OFFSET -3.534800 11.969597 7.200700
					CHANNELS 3 Xrotation Yrotation Zrotation
					JOINT Bind_Right_JacketString1
					{
						OFFSET -0.319900 -6.102600 2.794100
						CHANNELS 3 Xrotation Yrotation Zrotation
						End Site
						{
							OFFSET 0.000000 6.719452 0.000000
						}
					}
				}
				JOINT Bind_Left_JacketString
				{
					OFFSET 2.904800 11.969597 7.200700
					CHANNELS 3 Xrotation Yrotation Zrotation
					JOINT Bind_Left_JacketString1
					{
						OFFSET 0.364800 -5.904503 3.186800
						CHANNELS 3 Xrotation Yrotation Zrotation
						End Site
						{
							OFFSET 0.000000 6.719513 0.000000
						}
					}
				}
				JOINT HairE
				{
					OFFSET 5.915200 17.612701 -11.592200
					CHANNELS 3 Xrotation Yrotation Zrotation
					JOINT HairE1
					{
						OFFSET 0.289200 -7.171898 -1.284500
						CHANNELS 3 Xrotation Yrotation Zrotation
						End Site
						{
							OFFSET 0.000000 7.291756 0.000000
						}
					}
				}
				JOINT HairF
				{
					OFFSET -0.864800 17.612701 -11.592200
					CHANNELS 3 Xrotation Yrotation Zrotation
					JOINT HairF1
					{
						OFFSET 0.000000 -14.087097 -2.127501
						CHANNELS 3 Xrotation Yrotation Zrotation
						End Site
						{
							OFFSET 0.000000 14.246841 0.000000
						}
					}
				}
				JOINT HairG
				{
					OFFSET -8.087700 17.612701 -11.592200
					CHANNELS 3 Xrotation Yrotation Zrotation
					JOINT HairG1
					{
						OFFSET -0.293600 -6.081398 -0.910100
						CHANNELS 3 Xrotation Yrotation Zrotation
						End Site
						{
							OFFSET 0.000000 6.156120 0.000000
						}
					}
				}
			}
		}
	}
	JOINT Pouch
	{
		OFFSET 0.000000 4.394501 10.847300
		CHANNELS 3 Xrotation Yrotation Zrotation
		End Site
		{
			OFFSET 0.000000 21.880577 0.000000
		}
	}
	JOINT Bag
	{
		OFFSET -13.229000 4.813004 -0.593300
		CHANNELS 3 Xrotation Yrotation Zrotation
		End Site
		{
			OFFSET 0.000000 21.880577 0.000000
		}
	}
	JOINT OccupyGuyFacialAnim_Joint
	{
		OFFSET 1.000000 -70.206398 -1.655000
		CHANNELS 3 Xrotation Yrotation Zrotation
		End Site
		{
			OFFSET 0.000000 21.880577 0.000000
		}
	}
}
MOTION
Frames: 4
Frame Time: 0.016667
3.986387 12.751232 124.443779 -98.552315 -0.048311 -0.371589 -0.000000 0.000000 -0.000000 -39.770996 -24.933768 30.807046 99.671906 -6.320263 6.723065 4.817544 -0.151013 -7.325739 -0.000001 0.000002 0.000000 -0.000002 -0.000001 -0.000001 -44.984476 1.573323 -19.495078 96.664443 8.454519 -4.819396 -1.730860 -1.018186 6.527117 0.000000 -0.000001 -0.000000 -0.000000 -0.000001 -0.000002 3.645241 -0.757886 0.851683 0.996815 -0.409160 0.102272 1.002247 -0.404640 0.123115 11.869401 -0.692219 0.070575 20.968604 -3.405665 -0.139370 -0.000001 0.000000 -0.000000 -0.000001 0.000000 -0.000000 -0.000001 0.000000 -0.000000 -0.000001 0.000000 -0.000000 -0.000001 0.000000 -0.000000 -0.000001 0.000000 -0.000000 -0.000001 0.000000 -0.000000 -0.000001 0.000000 -0.000000 -0.000001 0.000000 -0.000000 -0.224982 -17.471185 -6.131982 63.391464 -14.457665 -43.758010 0.000008 -33.190372 -0.000001 11.926578 0.396556 4.407995 -18.975524 -6.392806 8.507235 7.278177 22.325622 2.208019 -0.000002 0.000001 -0.000001 -1.359257 -16.895750 -9.169190 0.574336 2.531651 -25.560059 0.000001 0.000001 -0.000002 0.066802 2.541857 -1.771543 0.574343 2.531639 -25.560059 -0.000001 0.000001 -0.000001 -0.079272 11.343941 1.376913 0.156697 1.347272 -13.267771 -0.000003 0.000008 -0.000000 -1.005497 24.263593 3.994954 0.021164 0.498117 -4.866732 -0.000000 -0.000001 0.000001 -0.000002 -0.000001 -0.000001 -2.454920 7.297287 14.160514 82.050619 23.802204 19.508782 0.000004 33.367376 -0.000008 -15.931041 26.703880 -8.895955 7.833051 7.095067 7.571912 7.285908 -22.249517 -2.728450 0.000000 -0.000001 -0.000002 0.350975 12.645965 48.306417 0.520611 -2.141517 27.324923 0.000004 0.000002 0.000002 1.687085 -5.825084 49.552247 -0.000001 0.000003 -0.000000 0.000002 0.000000 -0.000001 7.431432 -12.945086 39.159131 -0.000001 -0.000003 0.000016 -0.000002 0.000000 -0.000000 -2.798296 -28.992329 29.298397 0.000009 0.000001 0.000006 -0.000000 0.000002 -0.000001 0.000000 0.000001 0.000000 -0.000000 0.000000 0.000000 -0.000000 -0.000000 0.000000 -0.000000 0.000000 0.000000 -0.000000 0.000000 0.000000 -0.000000 0.000000 0.000000 -0.000000 -0.000000 0.000000 -0.000000 0.000000 0.000000 -0.000000 0.000000 0.000000 -0.000000 0.000000 0.000000 -0.000000 -0.000000 0.000000 -0.000000 0.000000 -0.000000 -0.000000 0.000000 -0.000000 -0.000000 0.000000 -0.000000 
4.029681 12.690773 124.397575 -98.538955 0.124792 -0.311460 0.000000 0.000000 0.000000 -40.155194 -24.938346 30.496743 99.631327 -6.026011 6.761836 4.786551 -0.156670 -7.503212 0.000001 -0.000001 0.000000 -0.000002 -0.000003 0.000002 -44.629969 0.947371 -19.554309 95.717820 8.041274 -4.899029 -2.621142 -0.871790 7.219471 -0.000001 -0.000000 0.000001 0.000002 0.000001 -0.000001 3.850575 -0.748302 0.837099 1.031036 -0.407030 0.091107 1.036525 -0.402724 0.114033 12.329908 -0.703528 0.096694 21.499284 -3.429747 -0.164762 0.000002 0.000000 0.000000 0.000002 0.000000 0.000000 0.000002 0.000000 0.000000 0.000002 0.000000 0.000000 0.000000 0.000000 0.000000 0.000002 0.000000 0.000000 0.000000 0.000000 0.000000 0.000002 0.000000 0.000000 0.000002 0.000000 0.000000 -0.240327 -17.364778 -6.480452 63.299113 -14.213862 -43.254102 0.000001 -33.210852 -0.000003 11.916998 0.404508 4.405476 -18.975507 -6.392789 8.507241 7.278167 22.325612 2.208017 -0.000004 -0.000000 0.000001 -1.359256 -16.895752 -9.169188 0.574342 2.531646 -25.560060 0.000002 0.000001 -0.000003 0.066806 2.541854 -1.771543 0.574333 2.531635 -25.560071 0.000003 0.000001 -0.000001 -0.079274 11.343939 1.376909 0.156695 1.347284 -13.267767 -0.000000 0.000004 -0.000000 -1.005494 24.263574 3.994951 0.021168 0.498121 -4.866730 -0.000000 -0.000001 0.000001 -0.000002 0.000001 -0.000001 -2.482194 7.018730 14.624709 81.478529 23.186641 19.645589 0.000002 33.245884 -0.000002 -15.507280 26.798116 -8.793885 7.793412 7.101439 7.515296 7.283439 -22.228246 -2.727023 0.000000 -0.000001 -0.000000 0.335967 12.653727 48.176425 0.520448 -2.141197 27.320390 -0.000001 -0.000004 0.000001 1.669390 -5.810017 49.433358 0.000002 0.000009 -0.000001 0.000002 -0.000001 -0.000003 7.397292 -12.931434 39.055869 -0.000001 -0.000007 -0.000000 -0.000000 0.000001 -0.000003 -2.810832 -28.967464 29.197597 0.000002 -0.001264 0.015461 -0.000001 -0.000000 0.000000 -0.000000 0.000000 0.000000 0.000000 -0.000000 -0.000000 0.000000 -0.000000 -0.000000 0.000000 -0.000000 -0.000000 0.000000 -0.000000 -0.000000 0.000000 -0.000000 -0.000000 0.000000 -0.000000 -0.000000 0.000000 -0.000000 -0.000000 0.000000 -0.000000 -0.000000 0.000000 -0.000000 -0.000000 0.000000 -0.000000 -0.000000 0.000000 0.000000 0.000000 0.000000 0.000000 0.000000 0.000000 0.000000 0.000000 
4.068544 12.626549 124.345329 -98.528375 0.284845 -0.232417 -0.000000 0.000000 0.000000 -40.551670 -24.900810 30.187766 99.594171 -5.749552 6.782139 4.782860 -0.163596 -7.622952 -0.000002 0.000000 0.000000 -0.000003 0.000000 0.000001 -44.206108 0.288747 -19.595784 94.668655 7.612009 -4.982538 -3.516983 -0.637849 7.944343 -0.000001 0.000000 0.000000 -0.000003 -0.000001 -0.000003 4.145027 -0.739333 0.801082 1.137670 -0.405697 0.070828 1.143166 -0.402001 0.095220 12.729178 -0.700866 0.120165 22.078028 -3.388850 -0.214323 0.000000 0.000000 -0.000000 0.000000 0.000000 -0.000000 0.000000 0.000000 0.000000 0.000000 0.000000 -0.000000 -0.000002 -0.000000 -0.000000 0.000000 0.000000 -0.000000 -0.000002 -0.000000 -0.000000 0.000000 0.000000 -0.000000 0.000000 0.000000 -0.000000 -0.154413 -16.831190 -6.895301 63.080540 -13.982368 -42.252858 0.000008 -33.293778 0.000005 11.914767 0.448049 4.394563 -18.975521 -6.392826 8.507222 7.278174 22.325629 2.208014 -0.000004 0.000002 0.000002 -1.359256 -16.895766 -9.169192 0.574341 2.531652 -25.560062 0.000001 0.000001 0.000002 0.066802 2.541817 -1.771551 0.574339 2.531672 -25.560071 0.000002 0.000001 0.000004 -0.079276 11.343914 1.376909 0.156698 1.347274 -13.267764 -0.000003 0.000003 0.000001 -1.005496 24.263567 3.994948 0.021167 0.498125 -4.866727 0.000001 0.000003 0.000001 0.000000 -0.000001 -0.000001 -2.516759 6.886647 15.038907 80.629147 22.829701 19.944856 0.000001 32.748305 -0.000002 -14.761309 26.600061 -8.650809 7.677681 7.119793 7.350155 7.276364 -22.167355 -2.722946 -0.000001 0.000000 0.000001 0.293487 12.676128 47.797496 0.519958 -2.140226 27.307011 0.000001 0.000000 -0.000001 1.618782 -5.766386 49.086971 0.000001 -0.000003 -0.000001 -0.000003 -0.000001 0.000003 7.298849 -12.892051 38.754876 -0.000002 -0.000017 -0.000006 -0.000001 0.000001 -0.000002 -2.846851 -28.895443 28.904169 -0.000006 -0.004951 0.060540 0.000001 -0.000002 0.000002 -0.000001 -0.000000 0.000000 0.000000 0.000000 -0.000000 0.000000 0.000000 -0.000000 0.000000 0.000000 0.000000 0.000000 0.000000 0.000000 0.000000 0.000000 -0.000000 0.000000 0.000000 -0.000000 0.000000 0.000000 0.000000 0.000000 0.000000 0.000000 0.000000 0.000000 -0.000000 0.000000 0.000000 -0.000000 -0.000000 0.000000 0.000000 -0.000000 0.000000 0.000000 -0.000000 0.000000 0.000000 
4.101586 12.558529 124.288055 -98.530390 0.426313 -0.138887 -0.000001 -0.000000 0.000000 -40.947073 -24.816727 29.889721 99.562165 -5.489000 6.782243 4.802869 -0.171387 -7.674603 0.000000 -0.000002 -0.000003 -0.000001 0.000000 -0.000001 -43.704243 -0.400353 -19.644773 93.516949 7.325381 -5.042422 -4.442788 -0.438719 8.763186 0.000000 -0.000000 0.000000 0.000001 -0.000001 -0.000002 4.412519 -0.743295 0.748902 1.255843 -0.410343 0.044731 1.261415 -0.407324 0.070598 13.050123 -0.685838 0.139931 22.764337 -3.297650 -0.308212 -0.000001 0.000000 -0.000000 -0.000001 0.000000 -0.000000 -0.000001 0.000000 0.000000 -0.000001 0.000000 -0.000000 -0.000003 0.000000 -0.000000 -0.000001 0.000000 -0.000000 -0.000003 0.000000 -0.000000 -0.000001 0.000000 -0.000000 -0.000001 0.000000 -0.000000 -0.073214 -16.364819 -7.317480 62.845827 -13.725586 -41.337230 -0.000000 -33.322160 0.000001 11.894093 0.459394 4.390759 -18.975524 -6.392806 8.507230 7.278177 22.325617 2.208015 -0.000000 -0.000000 -0.000002 -1.359257 -16.895771 -9.169194 0.574338 2.531653 -25.560067 0.000001 0.000001 -0.000000 0.066807 2.541822 -1.771549 0.574334 2.531662 -25.560071 -0.000003 0.000002 -0.000001 -0.079274 11.343925 1.376909 0.156701 1.347284 -13.267766 -0.000001 0.000001 0.000000 -1.005496 24.263567 3.994946 0.021170 0.498108 -4.866733 -0.000001 0.000000 0.000001 -0.000001 -0.000000 0.000000 -2.562789 6.924873 15.366536 79.650763 22.623101 20.419424 -0.000002 32.127564 0.000002 -13.938548 26.344909 -8.468984 7.490626 7.148978 7.083557 7.265212 -22.071341 -2.716522 -0.000001 -0.000001 -0.000000 0.227428 12.712860 47.186458 0.519138 -2.138648 27.285081 0.000000 -0.000000 -0.000003 1.539443 -5.696224 48.528323 0.000003 -0.000008 -0.000005 0.000001 0.000002 -0.000001 7.142407 -12.828717 38.269488 -0.000002 0.000012 0.000017 -0.000002 0.000000 -0.000002 -2.903369 -28.780474 28.431810 0.000012 -0.010866 0.133271 0.000001 -0.000000 0.000002 -0.000001 0.000002 0.000000 0.000000 0.000000 -0.000000 -0.000000 -0.000000 -0.000000 0.000000 0.000000 -0.000000 0.000000 0.000000 -0.000000 0.000000 0.000000 -0.000000 -0.000000 -0.000000 -0.000000 0.000000 0.000000 -0.000000 0.000000 0.000000 -0.000000 0.000000 0.000000 -0.000000 -0.000000 -0.000000 -0.000000 -0.000001 -0.000000 0.000000 -0.000001 -0.000000 0.000000 -0.000001 -0.000000 0.000000 
